<svg viewBox="0 0 780 300" xmlns="http://www.w3.org/2000/svg" font-family="Arial, Helvetica, sans-serif">
  <rect width="780" height="300" fill="#111111"/>
  <rect x="10" y="10" width="760" height="280" rx="8" fill="#1b1b1b" stroke="#333333" stroke-width="1"/>
  <rect x="10" y="10" width="760" height="5" rx="2.5" fill="#4caf50"/>

  <text x="28" y="42" fill="#eeeeee" font-size="17" font-weight="bold">Talent Pack Decoder</text>
  <rect x="705" y="24" width="55" height="20" rx="10" fill="#1f3d24"/>
  <text x="732" y="38" fill="#4caf50" font-size="11" font-weight="bold" text-anchor="middle">online</text>

  <!-- Decoder 1 -->
  <g transform="translate(28,60)">
    <rect width="228" height="215" rx="8" fill="#141414" stroke="#2a2a2a"/>
    <rect x="8" y="8" width="212" height="20" rx="4" fill="#1e1e1e" stroke="#333"/>
    <text x="114" y="22" fill="#eeeeee" font-size="11" font-weight="bold" text-anchor="middle">Talent 1</text>
    <rect x="8" y="32" width="212" height="18" rx="4" fill="#1e1e1e" stroke="#333"/>
    <text x="114" y="45" fill="#999999" font-size="10" text-anchor="middle">101.5 MHz</text>
    <rect x="8" y="54" width="212" height="18" rx="4" fill="#1e1e1e" stroke="#333"/>
    <text x="114" y="67" fill="#999999" font-size="10" text-anchor="middle">Receiver 1</text>

    <!-- LEDs -->
    <g transform="translate(8,88)">
      <circle cx="26" cy="10" r="7" fill="#4caf50"/>
      <text x="26" y="34" fill="#999" font-size="9" text-anchor="middle">On-Air</text>
      <circle cx="80" cy="10" r="7" fill="#3a3a2a"/>
      <text x="80" y="34" fill="#999" font-size="9" text-anchor="middle">Prod</text>
      <circle cx="134" cy="10" r="7" fill="#333333"/>
      <text x="134" y="34" fill="#999" font-size="9" text-anchor="middle">Error/Man</text>
      <circle cx="188" cy="10" r="7" fill="#3a2222"/>
      <text x="188" y="34" fill="#999" font-size="9" text-anchor="middle">Call</text>
    </g>

    <line x1="8" y1="150" x2="220" y2="150" stroke="#222222"/>
    <rect x="8" y="158" width="14" height="14" rx="3" fill="none" stroke="#666"/>
    <text x="30" y="169" fill="#888888" font-size="10">Log this path</text>
  </g>

  <!-- Decoder 2 -->
  <g transform="translate(276,60)">
    <rect width="228" height="215" rx="8" fill="#141414" stroke="#2a2a2a"/>
    <rect x="8" y="8" width="212" height="20" rx="4" fill="#1e1e1e" stroke="#333"/>
    <text x="114" y="22" fill="#eeeeee" font-size="11" font-weight="bold" text-anchor="middle">Talent 2</text>
    <rect x="8" y="32" width="212" height="18" rx="4" fill="#1e1e1e" stroke="#333"/>
    <text x="114" y="45" fill="#999999" font-size="10" text-anchor="middle">104.9 MHz</text>
    <rect x="8" y="54" width="212" height="18" rx="4" fill="#1e1e1e" stroke="#333"/>
    <text x="114" y="67" fill="#999999" font-size="10" text-anchor="middle">Receiver 2</text>

    <g transform="translate(8,88)">
      <circle cx="26" cy="10" r="7" fill="#2a3a2a"/>
      <text x="26" y="34" fill="#999" font-size="9" text-anchor="middle">On-Air</text>
      <circle cx="80" cy="10" r="7" fill="#ffca28"/>
      <text x="80" y="34" fill="#999" font-size="9" text-anchor="middle">Prod</text>
      <circle cx="134" cy="10" r="7" fill="#f44336"/>
      <text x="134" y="34" fill="#999" font-size="9" text-anchor="middle">Error/Man</text>
      <circle cx="188" cy="10" r="7" fill="#f44336"/>
      <text x="188" y="34" fill="#999" font-size="9" text-anchor="middle">Call</text>
    </g>

    <line x1="8" y1="150" x2="220" y2="150" stroke="#222222"/>
    <rect x="8" y="158" width="14" height="14" rx="3" fill="#1f3d24" stroke="#4caf50"/>
    <path d="M10.5 165 L13 168 L18.5 160" stroke="#4caf50" stroke-width="1.8" fill="none"/>
    <text x="30" y="169" fill="#888888" font-size="10">Log this path</text>
  </g>

  <!-- Decoder 3 -->
  <g transform="translate(524,60)">
    <rect width="228" height="215" rx="8" fill="#141414" stroke="#2a2a2a"/>
    <rect x="8" y="8" width="212" height="20" rx="4" fill="#1e1e1e" stroke="#333"/>
    <text x="114" y="22" fill="#eeeeee" font-size="11" font-weight="bold" text-anchor="middle">Talent 3</text>
    <rect x="8" y="32" width="212" height="18" rx="4" fill="#1e1e1e" stroke="#333"/>
    <text x="114" y="45" fill="#999999" font-size="10" text-anchor="middle">98.3 MHz</text>
    <rect x="8" y="54" width="212" height="18" rx="4" fill="#1e1e1e" stroke="#333"/>
    <text x="114" y="67" fill="#999999" font-size="10" text-anchor="middle">Receiver 3</text>

    <g transform="translate(8,88)">
      <circle cx="26" cy="10" r="7" fill="#2a3a2a"/>
      <text x="26" y="34" fill="#999" font-size="9" text-anchor="middle">On-Air</text>
      <circle cx="80" cy="10" r="7" fill="#3a3a2a"/>
      <text x="80" y="34" fill="#999" font-size="9" text-anchor="middle">Prod</text>
      <circle cx="134" cy="10" r="7" fill="#42a5f5"/>
      <text x="134" y="34" fill="#999" font-size="9" text-anchor="middle">Error/Man</text>
      <circle cx="188" cy="10" r="7" fill="#3a2222"/>
      <text x="188" y="34" fill="#999" font-size="9" text-anchor="middle">Call</text>
    </g>

    <line x1="8" y1="150" x2="220" y2="150" stroke="#222222"/>
    <rect x="8" y="158" width="14" height="14" rx="3" fill="none" stroke="#666"/>
    <text x="30" y="169" fill="#888888" font-size="10">Log this path</text>
  </g>

  <text x="28" y="288" fill="#777777" font-size="10">Device ID: esp32-a1b2c3 &#183; 15 monitored inputs</text>
</svg>
