<svg viewBox="0 0 500 300" xmlns="http://www.w3.org/2000/svg" font-family="Arial, Helvetica, sans-serif">
  <rect width="500" height="300" fill="#111111"/>
  <rect x="10" y="10" width="480" height="280" rx="8" fill="#1b1b1b" stroke="#333333" stroke-width="1"/>
  <rect x="10" y="10" width="480" height="5" rx="2.5" fill="#4caf50"/>

  <text x="28" y="42" fill="#eeeeee" font-size="17" font-weight="bold">2 Path Fiber Drawer</text>
  <rect x="425" y="24" width="55" height="20" rx="10" fill="#1f3d24"/>
  <text x="452" y="38" fill="#4caf50" font-size="11" font-weight="bold" text-anchor="middle">online</text>

  <!-- Path 1 -->
  <g transform="translate(28,64)">
    <rect width="212" height="200" rx="8" fill="#141414" stroke="#2a2a2a"/>
    <rect x="10" y="12" width="192" height="20" rx="4" fill="#1e1e1e" stroke="#333"/>
    <text x="106" y="26" fill="#eeeeee" font-size="11" font-weight="bold" text-anchor="middle">Fiber Run A</text>

    <text x="106" y="78" fill="#eeeeee" font-size="30" font-weight="bold" text-anchor="middle">2.45</text>
    <text x="106" y="98" fill="#666666" font-size="11" text-anchor="middle">mW</text>

    <text x="106" y="120" fill="#4caf50" font-size="10.5" text-anchor="middle">Ref 2.40 &#183; &#916; +0.05</text>

    <rect x="10" y="132" width="192" height="22" rx="4" fill="#1e1e1e" stroke="#333"/>
    <text x="106" y="146" fill="#999999" font-size="10" text-anchor="middle">Set reference</text>

    <circle cx="106" cy="175" r="7" fill="#3a2222"/>
    <text x="106" y="196" fill="#999999" font-size="9.5" text-anchor="middle">Fault</text>
  </g>

  <!-- Path 2 -->
  <g transform="translate(260,64)">
    <rect width="212" height="200" rx="8" fill="#141414" stroke="#2a2a2a"/>
    <rect x="10" y="12" width="192" height="20" rx="4" fill="#1e1e1e" stroke="#333"/>
    <text x="106" y="26" fill="#eeeeee" font-size="11" font-weight="bold" text-anchor="middle">Fiber Run B</text>

    <text x="106" y="78" fill="#eeeeee" font-size="30" font-weight="bold" text-anchor="middle">0.85</text>
    <text x="106" y="98" fill="#666666" font-size="11" text-anchor="middle">mW</text>

    <text x="106" y="120" fill="#f44336" font-size="10.5" text-anchor="middle">Ref 1.60 &#183; &#916; -0.75</text>

    <rect x="10" y="132" width="192" height="22" rx="4" fill="#1e1e1e" stroke="#333"/>
    <text x="106" y="146" fill="#999999" font-size="10" text-anchor="middle">Set reference</text>

    <circle cx="106" cy="175" r="7" fill="#f44336"/>
    <text x="106" y="196" fill="#999999" font-size="9.5" text-anchor="middle">Fault</text>
  </g>

  <text x="28" y="286" fill="#777777" font-size="10">Device ID: esp32-c3d4e5 &#183; 2 analog inputs, 2 digital inputs</text>
</svg>
